<?xml version="1.0" encoding="UTF-8"?>
<svg id="Layer_2" data-name="Layer 2" xmlns="http://www.w3.org/2000/svg" viewBox="0 0 4647.13 1163.5">
  <defs>
    <style>
      .cls-1, .cls-2 {
        fill-rule: evenodd;
      }

      .cls-1, .cls-3 {
        fill: #ed790a;
      }

      .cls-4 {
        fill: #0096a2;
      }

      .cls-5 {
        fill: #30b3be;
      }

      .cls-2 {
        fill: #f39638;
      }
    </style>
  </defs>
  <g id="Camada_1" data-name="Camada 1">
    <g>
      <g>
        <path class="cls-4" d="m717.74,325.43h0c-45.25,26.12-63.69,36.77-108.94,62.89h0s-.01,0-.01,0l-.69.4c38.95,22.5,77.91,44.99,116.86,67.48l4.29,2.48v-139.89l-11.5,6.64h0Z"/>
        <path class="cls-4" d="m729.24,791.59v-139.88l-443.24-255.91,149.74-86.45h0l67.87-39.19h0s225.62-130.27,225.62-130.27V0h0s-12.2,7.05-12.2,7.05h0l-253.31,146.24h0s0,0,0,0l-253.31,146.25-166.73,96.26,65.28,37.68,55.26,31.9h0s.61.36.61.36c41.14,23.76,564.37,325.87,564.39,325.85h0Z"/>
        <polygon class="cls-3" points="729.24 1023.61 416.85 843.24 416.84 843.24 346.58 802.68 346.58 675.62 232.11 609.53 225.42 605.67 225.44 732.73 225.42 732.73 225.42 872.63 290.88 910.42 290.89 910.42 290.89 910.43 408.45 978.3 476.32 1017.48 476.33 1017.48 476.33 1017.49 544.2 1056.67 544.2 1056.67 544.2 1056.67 612.07 1095.85 612.08 1095.85 612.08 1095.86 679.95 1135.04 679.95 1135.04 679.95 1135.04 729.24 1163.5 729.24 1163.5 729.24 1023.61"/>
        <polygon class="cls-5" points="729.24 0 729.24 0 749.93 11.95 749.93 11.95 749.93 11.95 817.8 51.13 817.8 51.13 817.8 51.13 885.68 90.32 1071.11 197.37 1071.11 197.38 1071.11 197.38 1126.48 229.34 729.24 458.68 729.24 318.79 785.61 286.25 785.61 286.25 785.61 286.24 853.48 247.06 853.49 247.06 853.49 247.06 884.17 229.34 777.91 167.99 777.91 167.99 777.91 167.99 729.24 139.89 729.24 139.89 729.24 0"/>
        <path class="cls-1" d="m115.37,901.8l61.29,211.49c-42.82-17.14-108.13-16.35-146.11-11.66l1.59-36.66,7.04-162.59c11.68,4.12,23.93,6.38,37.31,6.38s26.76-2.46,38.87-6.96Zm-6.24-468.32v309.68c3.92,1.86,7.66,3.9,11.19,6.16v.06h.1c.67.43,1.35.88,2,1.33v.07h.1c1.9,1.31,3.74,2.68,5.5,4.12v.07h.09c3.28,2.71,6.29,5.67,9.01,8.91v.19h.15c.18.22.36.44.55.66v.04h.03c.71.88,1.4,1.78,2.07,2.7v.1h.07c.96,1.33,1.86,2.7,2.73,4.11v.09h.05c.22.36.44.73.65,1.09v.31h.18c1.22,2.13,2.32,4.35,3.32,6.68v.32h.14c.19.45.38.91.56,1.38v.02h0c.24.6.47,1.22.69,1.83v.27h.1c.2.58.41,1.16.6,1.75v.35h.12c.47,1.46.9,2.95,1.28,4.48v.42h.11c.21.86.41,1.73.59,2.6v.9h.18c.19.94.36,1.91.52,2.88v.62h.1c.24,1.55.44,3.14.6,4.76v2.24h.19c.19,2.48.28,5.04.28,7.69,0,3.94-.4,7.93-1.18,11.9h0c-.36,1.88-.81,3.74-1.33,5.6h-.07v.24c-.58,2.03-1.24,4.05-2.01,6.06h-.09v.24c-1.53,3.98-3.4,7.88-5.59,11.65h0c-1.67,2.89-3.53,5.7-5.55,8.4h-.04v.06c-4.02,5.36-8.69,10.3-13.91,14.64h-.09v.07c-1.13.94-2.29,1.86-3.47,2.73h-.03v.02c-5.33,3.96-11.15,7.28-17.33,9.78h-.17v.07c-2.67,1.07-5.41,1.99-8.2,2.73h-.19v.05c-.89.24-1.8.45-2.71.65h-.08v.03c-3.07.67-6.21,1.14-9.4,1.38h-1.1v.08c-1.3.08-2.6.11-3.93.11s-2.52-.04-3.77-.1v-.09h-1.25c-1.93-.14-3.85-.37-5.74-.68v-.02h-.11c-3.79-.62-7.5-1.56-11.09-2.78v-.02h-.06c-2.37-.81-4.68-1.73-6.94-2.77v-.03h-.07c-.92-.42-1.83-.86-2.72-1.32v-.08h-.16c-.42-.22-.82-.43-1.24-.64v-.06h-.1c-1.63-.87-3.23-1.8-4.79-2.79h0s0,0,0,0c-.71-.45-1.41-.9-2.1-1.37v-.03h-.04c-1.91-1.29-3.77-2.67-5.56-4.11v-.09h-.11c-1.65-1.33-3.25-2.73-4.79-4.19h0s-.02,0-.02,0c-.22-.22-.46-.43-.69-.65v-.05h-.06c-.21-.21-.43-.42-.64-.63v-.07h-.07c-.21-.21-.42-.41-.63-.63v-.07h-.08c-2.2-2.22-4.28-4.57-6.22-6.99-.72-.9-1.42-1.82-2.1-2.74v-.06h-.04c-1.48-2.02-2.87-4.09-4.16-6.21v-.08h-.05c-.97-1.61-1.89-3.24-2.75-4.89h0c-.23-.47-.47-.93-.69-1.39v-.02h-.01c-2.01-4.06-3.65-8.22-4.89-12.45v-.15h-.04c-.53-1.81-.98-3.62-1.36-5.44v-.16h-.03c-.26-1.26-.48-2.52-.67-3.79v-.41h-.06c-.39-2.81-.59-5.62-.59-8.4,0-3.66.19-7.14.54-10.49h.11v-1.06c.18-1.54.4-3.05.66-4.54h.04v-.26c.15-.86.31-1.7.49-2.54h.22v-1c.18-.84.39-1.68.6-2.5h.1v-.39c.21-.81.44-1.61.68-2.4h.02v-.08c.2-.68.42-1.36.64-2.02h.06v-.18c.22-.65.45-1.29.68-1.93h.02v-.05c.16-.45.34-.9.52-1.35h.18v-.46c.22-.55.45-1.09.69-1.64h.01v-.02c.62-1.43,1.29-2.83,2-4.18h.1v-.19c.22-.41.43-.81.66-1.21h.04v-.08c.66-1.17,1.33-2.3,2.05-3.41h.05v-.09c.44-.68.89-1.35,1.36-2.01h.04v-.06c.65-.94,1.33-1.85,2.03-2.74h.07v-.08c.16-.21.32-.42.49-.62h.21v-.26c1.11-1.37,2.28-2.68,3.49-3.94h0c.23-.24.45-.47.67-.7h.03v-.03c.23-.23.45-.45.67-.67h.03v-.03c.23-.22.46-.45.7-.67h0c2.35-2.25,4.88-4.35,7.54-6.3h.15v-.11c.61-.44,1.21-.87,1.82-1.28h.28v-.19c2.87-1.95,5.89-3.75,9.05-5.41h.05v-.02c.43-.23.87-.45,1.31-.67h.09v-.05c.43-.22.87-.44,1.31-.65h.08v-.04c.4-.2.81-.39,1.21-.59v-347.35h.02s65.26,37.67,65.26,37.67Z"/>
        <polygon class="cls-2" points="729.24 1023.61 815 974.1 815 974.1 932.56 906.22 1111.91 802.67 1111.88 570.71 1233.05 501.56 1233.05 872.63 1108.19 944.71 854.89 1090.96 729.24 1163.5 729.24 1023.61"/>
        <g>
          <polygon class="cls-5" points="746.43 781.67 746.43 781.67 746.43 781.67 814.3 742.49 814.3 742.48 814.31 742.48 882.18 703.3 931.86 674.61 931.86 674.61 931.87 674.61 1049.42 606.73 1111.88 570.67 1111.88 570.71 1233.05 501.56 1233.05 360.81 1226.45 364.62 1226.45 364.62 1059.21 461.18 1059.21 461.18 1059.21 461.18 941.66 529.06 941.66 529.06 941.65 529.06 824.1 596.93 824.1 596.94 729.24 651.7 729.24 651.7 729.24 791.59 729.24 791.59 746.43 781.67"/>
          <polygon class="cls-5" points="729.24 1023.61 729.24 1023.61 729.24 1023.61 729.24 1023.61"/>
        </g>
      </g>
      <g>
        <path d="m1672.57,581.13h43.84v-26.64l-44.56-4.61c-.74-40.18-.77-80.78-.77-122.31h54.86l6.47,43.49h28.76v-111.76h-28.76l-6.1,39.02h-55.22c0-38.79.08-77.26.82-115.01h86.49l9.85,57.4h41.37l-3.47-85.41h-256.5v26.64l37.39,3.86c.77,41.06.78,82.31.78,123.24v18.36c0,41.57-.01,82.81-.77,123.24l-37.4,3.87v26.64h122.94Z"/>
        <path d="m1934.45,588.65c76.8,0,125.96-51.04,125.96-128.36s-55.24-126.41-125.96-126.41-125.96,50.17-125.96,126.41,48.53,128.36,125.96,128.36Zm0-228.87c27.76,0,41.96,31.19,41.96,101.59s-14.2,101.39-41.96,101.39-41.96-30.64-41.96-101.39,13.92-101.59,41.96-101.59Z"/>
        <path d="m2234.86,581.13v-23.08l-39.37-8.24c-.43-23.8-.64-52.68-.64-72.83v-33.14c5.51-24.24,18.64-46.11,33.06-60.15l3.24,4.24c11.79,15.67,23.36,23,38.34,23,19.84,0,34.13-14.68,35.21-40.5-4.16-24.59-21.54-36.54-43.08-36.54-24.92,0-53.32,21.44-66.9,64.44l-4.39-59.12-8.51-5.32-97.86,32.98v19.5l30.37,4.46c.99,19.84,1.49,29.84,1.49,57.12v29.03c0,20.88-.23,51.12-.69,75.37l-27.21,5.69v23.08h146.94Z"/>
        <path d="m2449.49,558.04l-23.34-4.95c-.47-24.38-.7-55.02-.7-76.11v-76.92c14.87-11.8,30.26-18.22,42.59-18.22,19.74,0,27.7,11.3,27.7,43.11v52.04c0,21.49-.23,51.39-.68,75.39l-25.7,5.68v23.08h130.88v-23.08l-24.77-5.06c-.46-24.1-.69-54.33-.69-76v-57.79c0-57.23-28.56-85.31-71.57-85.31-28.8,0-52.79,10.55-79.33,41.22l-2.95-35.9-8.51-5.32-97.86,32.98v19.5l30.37,4.46c.99,19.84,1.49,30.2,1.49,57.48v28.68c0,20.85-.23,51.05-.68,75.29l-26.77,5.78v23.08h130.53v-23.08Z"/>
        <path d="m2852.38,530.76l-17.13-16.08c-14.99,15.46-33.4,26.62-60.13,26.62-34.57,0-62.93-23.74-66.61-75.98h143.76c1.98-8.24,2.76-16.01,2.76-26.7,0-60.01-37.09-104.74-102.48-104.74s-127.75,44.86-127.75,127.54,51.38,127.23,123.56,127.23c47.99,0,83.67-19.1,104.03-57.89Zm-104.83-171.34c18,0,33.58,16.13,33.58,48.69,0,22.12-6.17,31.02-29.98,31.02h-42.78c2.39-60.27,19.99-79.71,39.18-79.71Z"/>
        <path d="m3006.24,588.65c46.98,0,82.65-19.23,101.77-59.68l-17.27-15.25c-14.3,16.57-32.08,27.59-55.83,27.59-41.61,0-69.11-31.36-69.11-88.48,0-67.06,31.11-93.41,59.58-93.41,3.2,0,6.28.15,9.3.44l3.21,25.08c2.4,34.94,18.51,47.01,38.09,47.01,17.77,0,28.07-8.1,33.41-25.86-3.58-39.56-40.28-72.21-92.65-72.21-74.04,0-133.97,46.98-133.97,128.06s55.89,126.71,123.48,126.71Z"/>
        <path d="m3344.58,514.68c-14.99,15.46-33.4,26.62-60.13,26.62-34.57,0-62.93-23.74-66.61-75.98h143.76c1.98-8.24,2.76-16.01,2.76-26.7,0-60.01-37.09-104.74-102.48-104.74s-127.75,44.86-127.75,127.54,51.38,127.23,123.56,127.23c47.99,0,83.67-19.1,104.03-57.89l-17.13-16.08Zm-87.69-155.26c18,0,33.58,16.13,33.58,48.69,0,22.12-6.17,31.02-29.98,31.02h-42.78c2.39-60.27,19.99-79.71,39.18-79.71Z"/>
        <path d="m3491.53,588.65c28.1,0,50.52-9.75,69.46-30.57l4.16,28.73,96.99-5.68v-23.08l-24.35-5.43v-257.29l1.98-69.35-8.02-5.04-104.86,22.32v20.94l34.78,4.96v91.07c-15.34-17.31-33.4-26.34-59.96-26.34-55.99,0-109.21,48.8-109.21,129.55s42.81,125.22,99.02,125.22Zm37.97-212.82c10.95,0,20.1,3.47,29.26,10.34v148.05c-8.95,7.16-18.88,11.41-30.55,11.41-30.51,0-51.68-28.68-51.68-83.19,0-58.64,22.93-86.61,52.97-86.61Z"/>
        <path d="m3813.04,333.88c-70.99,0-125.96,50.17-125.96,126.41s48.53,128.36,125.96,128.36,125.96-51.04,125.96-128.36-55.24-126.41-125.96-126.41Zm0,228.87c-28.04,0-41.96-30.64-41.96-101.39s13.92-101.59,41.96-101.59,41.96,31.19,41.96,101.59-14.2,101.39-41.96,101.39Z"/>
        <path d="m3994.41,447.95v29.03c0,20.88-.23,51.12-.69,75.37l-27.21,5.69v23.08h146.94v-23.08l-39.37-8.24c-.43-23.8-.64-52.68-.64-72.83v-33.14c5.51-24.24,18.64-46.11,33.06-60.15l3.24,4.24c11.79,15.67,23.36,23,38.34,23,19.84,0,34.13-14.68,35.21-40.5-4.16-24.59-21.54-36.54-43.08-36.54-24.92,0-53.32,21.44-66.9,64.44l-4.39-59.12-8.51-5.32-97.86,32.98v19.5l30.37,4.46c.99,19.84,1.49,29.84,1.49,57.12Z"/>
        <path d="m4313.02,588.65c47.99,0,83.67-19.1,104.03-57.89l-17.13-16.08c-14.99,15.46-33.4,26.62-60.13,26.62-34.57,0-62.93-23.74-66.61-75.98h143.76c1.98-8.24,2.76-16.01,2.76-26.7,0-60.01-37.09-104.74-102.48-104.74s-127.75,44.86-127.75,127.54,51.38,127.23,123.56,127.23Zm-.8-229.23c18,0,33.58,16.13,33.58,48.69,0,22.12-6.17,31.02-29.98,31.02h-42.78c2.39-60.27,19.99-79.71,39.18-79.71Z"/>
        <path d="m4581.2,429.36l-24.18-6.89c-34.08-10.25-41.47-19.76-41.47-33.49,0-17.97,14.8-27.78,36.96-27.78,11.21,0,19.5,1.19,27.25,3.84l10.03,43.19h39.83l3.42-54.38c-25.62-12.89-49.31-19.98-78.6-19.98-66.86,0-103.55,35.38-103.55,81.1,0,37.3,21.66,62.73,60.01,73.97l26.75,7.72c32.68,9.62,41.83,19.81,41.83,35.41,0,19.95-15.71,29.24-44.23,29.24-13.66,0-25.35-2.47-37.12-7.18l-8.32-49.13h-39.88l-1.24,60.86c26.09,15.26,53.86,22.78,86.28,22.78,69.92,0,112.18-30.15,112.18-82.59,0-36.83-18.85-62.65-65.93-76.7Z"/>
        <path d="m1765.03,971.93h-93.11c-.81-41.34-.83-83.13-.83-125.89h54.14l5.73,38.53h28.76v-106.8h-28.76l-6.1,39.02h-53.76c0-38.79.08-77.26.82-115.01h83.27l9.85,57.4h41.37l-3.47-85.42h-253.28v26.64l37.39,3.86c.77,41.06.78,82.31.78,123.24v18.36c0,41.57-.01,82.81-.77,123.24l-37.4,3.87v26.64h263.2l3.47-85.42h-41.37l-9.91,57.76Z"/>
        <path d="m2084.53,713.78l1.98-69.35-8.02-5.04-104.86,22.32v20.94l34.78,4.96v91.07c-15.34-17.31-33.4-26.34-59.96-26.34-55.99,0-109.21,48.8-109.21,129.55s42.81,125.22,99.02,125.22c28.1,0,50.52-9.75,69.46-30.57l4.16,28.73,96.99-5.68v-23.08l-24.35-5.43v-257.29Zm-109.59,250.31c-30.51,0-51.68-28.68-51.68-83.19,0-58.64,22.93-86.61,52.97-86.61,10.95,0,20.1,3.47,29.26,10.34v148.05c-8.95,7.16-18.88,11.41-30.55,11.41Z"/>
        <path d="m2383.44,830.56l1.49-70.15-7.82-5.32-98.69,16.11v19.15l26.98,6.24-1.59,139.94c-13.32,12.93-29.12,22.62-42.77,22.62-16.9,0-26.93-10.01-26.93-40.91v-87.69l2.48-70.15-7.82-5.32-101.12,14.32v20.94l28.38,6.35-1.68,121.14c-.85,65.46,27.52,89.27,70.06,89.27,31.81,0,58.88-15.73,80.46-43.62l2.9,41.5,101.66-5.04v-23.08l-25.99-5.47v-140.83Z"/>
        <path d="m2574.08,777.88c3.2,0,6.28.15,9.3.44l3.21,25.08c2.4,34.94,18.51,47.01,38.09,47.01,17.77,0,28.07-8.1,33.41-25.86-3.58-39.56-40.28-72.21-92.65-72.21-74.04,0-133.97,46.98-133.97,128.06s55.89,126.71,123.48,126.71c46.98,0,82.65-19.23,101.77-59.68l-17.27-15.25c-14.3,16.57-32.08,27.59-55.83,27.59-41.61,0-69.11-31.36-69.11-88.48,0-67.06,31.11-93.41,59.58-93.41Z"/>
        <path d="m2905.7,971.38c-7.11,0-11.19-4.71-11.19-14.51v-111.22c0-66.42-25.16-93.31-88.76-93.31-71.42,0-111.34,27.96-113.97,69.23,3.85,16.33,15.73,24.85,33.41,24.85,19.12,0,35.14-13.3,36.38-46.29l2.25-21.55c4.86-.5,9.28-.7,13.62-.7,31.66,0,40.18,12.98,40.18,56.93v16.22c-14.02,3.7-27.65,7.45-37.71,10.4-76.48,22.15-96.01,46.98-96.01,82.26,0,40.81,26.67,63.42,65.03,63.42,33.87,0,49.53-13.58,71.3-36.41,7.12,22.85,24.91,36,53.97,36s47.79-10.38,59.69-37.46l-13.14-8.76c-5.81,8.24-9.84,10.91-15.05,10.91Zm-118.72-4.38c-16.73,0-29.79-11.49-29.79-36.34,0-23.33,14.62-40.03,37.07-49.51,6.04-2.77,14.21-5.65,23.36-8.5v80.62c-14.21,10.19-21.66,13.73-30.64,13.73Z"/>
        <path d="m3088.37,777.88c3.2,0,6.28.15,9.3.44l3.21,25.08c2.4,34.94,18.51,47.01,38.09,47.01,17.77,0,28.07-8.1,33.41-25.86-3.58-39.56-40.28-72.21-92.65-72.21-74.04,0-133.97,46.98-133.97,128.06s55.89,126.71,123.48,126.71c46.98,0,82.65-19.23,101.77-59.68l-17.27-15.25c-14.3,16.57-32.08,27.59-55.83,27.59-41.61,0-69.11-31.36-69.11-88.48,0-67.06,31.11-93.41,59.58-93.41Z"/>
        <path d="m3309.14,676.15c0-23.14-18.68-39.47-42.04-39.47s-42.04,16.33-42.04,39.47,18.68,39.47,42.04,39.47,42.04-16.47,42.04-39.47Z"/>
        <path d="m3307.34,895.44v-65.82l1.49-71.96-8.51-5.32-103.87,32.98v19.5l30.65,4.46c.99,19.84,1.49,35.21,1.49,62.49v23.67c0,20.86-.23,51.06-.69,75.31l-26.69,5.76v23.08h131.6v-23.08l-24.77-5.1c-.46-24.35-.7-54.92-.7-75.96Z"/>
        <path d="m3483.25,752.34c-70.99,0-125.96,50.17-125.96,126.41s48.53,128.36,125.96,128.36,125.96-51.04,125.96-128.36-55.24-126.41-125.96-126.41Zm0,228.87c-28.04,0-41.96-30.64-41.96-101.39s13.92-101.59,41.96-101.59,41.96,31.19,41.96,101.59-14.2,101.39-41.96,101.39Z"/>
        <path d="m3892.98,895.44v-57.79c0-57.23-28.56-85.31-71.57-85.31-28.8,0-52.79,10.55-79.33,41.22l-2.95-35.9-8.51-5.32-97.86,32.98v19.5l30.37,4.46c.99,19.84,1.49,30.2,1.49,57.48v28.68c0,20.85-.23,51.05-.68,75.29l-26.77,5.78v23.08h130.53v-23.08l-23.34-4.95c-.47-24.38-.7-55.02-.7-76.11v-76.92c14.87-11.8,30.26-18.22,42.59-18.22,19.74,0,27.7,11.3,27.7,43.11v52.04c0,21.49-.23,51.39-.68,75.39l-25.7,5.68v23.08h130.88v-23.08l-24.78-5.06c-.46-24.1-.69-54.33-.69-76Z"/>
        <path d="m4162.39,971.38c-7.11,0-11.19-4.71-11.19-14.51v-111.22c0-66.42-25.16-93.31-88.76-93.31-71.42,0-111.34,27.96-113.97,69.23,3.85,16.33,15.73,24.85,33.41,24.85,19.12,0,35.14-13.3,36.38-46.29l2.25-21.55c4.86-.5,9.28-.7,13.62-.7,31.66,0,40.18,12.98,40.18,56.93v16.22c-14.02,3.7-27.65,7.45-37.71,10.4-76.48,22.15-96.01,46.98-96.01,82.26,0,40.81,26.67,63.42,65.03,63.42,33.87,0,49.53-13.58,71.3-36.41,7.12,22.85,24.91,36,53.97,36s47.79-10.38,59.69-37.46l-13.14-8.76c-5.81,8.24-9.84,10.91-15.05,10.91Zm-118.72-4.38c-16.73,0-29.79-11.49-29.79-36.34,0-23.33,14.62-40.03,37.07-49.51,6.04-2.77,14.21-5.65,23.36-8.5v80.62c-14.21,10.19-21.66,13.73-30.64,13.73Z"/>
        <path d="m4309.62,895.44v-65.82l1.49-71.96-8.51-5.32-103.87,32.98v19.5l30.65,4.46c.99,19.84,1.49,35.21,1.49,62.49v23.67c0,20.86-.23,51.06-.69,75.31l-26.69,5.76v23.08h131.6v-23.08l-24.77-5.1c-.46-24.35-.7-54.92-.7-75.96Z"/>
        <path d="m4227.35,676.15c0,23,18.68,39.47,42.04,39.47s42.04-16.47,42.04-39.47-18.68-39.47-42.04-39.47-42.04,16.33-42.04,39.47Z"/>
        <path d="m4492.93,847.82l-24.18-6.89c-34.08-10.25-41.47-19.76-41.47-33.49,0-17.97,14.8-27.78,36.96-27.78,11.21,0,19.5,1.2,27.25,3.84l10.03,43.19h39.83l3.42-54.38c-25.62-12.89-49.31-19.98-78.6-19.98-66.86,0-103.55,35.38-103.55,81.1,0,37.3,21.66,62.73,60.01,73.97l26.75,7.71c32.68,9.62,41.83,19.81,41.83,35.41,0,19.95-15.71,29.24-44.23,29.24-13.66,0-25.35-2.47-37.12-7.18l-8.32-49.13h-39.88l-1.24,60.86c26.09,15.26,53.86,22.78,86.28,22.78,69.92,0,112.18-30.15,112.18-82.59,0-36.83-18.85-62.65-65.93-76.7Z"/>
      </g>
    </g>
  </g>
</svg>